<svg version="1.2" baseProfile="tiny-ps" xmlns="http://www.w3.org/2000/svg" viewBox="0 0 17 17" width="17" height="17">
	<title>head</title>
	<style>
		tspan { white-space:pre }
		.shp0 { fill: #21c38b } 
	</style>
	<g id="head">
		<g id="header">
			<g id="card">
				<path id="icon" class="shp0" d="M16.5 2.89C16.08 2.4 15.47 2.12 14.83 2.12L3.08 2.12L3.05 1.88C2.92 0.81 1.99 0 0.89 0L0.73 0C0.33 0 0 0.32 0 0.71C0 1.1 0.33 1.42 0.73 1.42L0.89 1.42C1.26 1.42 1.57 1.69 1.61 2.04L2.61 10.33C2.82 12.11 4.37 13.46 6.22 13.46L13.8 13.46C14.2 13.46 14.53 13.14 14.53 12.75C14.53 12.36 14.2 12.04 13.8 12.04L6.22 12.04C5.3 12.04 4.48 11.47 4.17 10.63L12.83 10.63C14.58 10.63 16.09 9.4 16.4 7.71L16.97 4.63C17.09 4.01 16.91 3.37 16.5 2.89ZM5.09 14.17C5.89 14.17 6.54 14.8 6.54 15.58C6.54 16.37 5.89 17 5.09 17C4.28 17 3.63 16.37 3.63 15.58C3.63 14.8 4.28 14.17 5.09 14.17ZM12.35 14.17C13.15 14.17 13.8 14.8 13.8 15.58C13.8 16.37 13.15 17 12.35 17C11.55 17 10.9 16.37 10.9 15.58C10.9 14.8 11.55 14.17 12.35 14.17Z" />
			</g>
		</g>
	</g>
</svg>