<svg version="1.2" baseProfile="tiny-ps" xmlns="http://www.w3.org/2000/svg" viewBox="0 0 24 20" width="24" height="20">
	<title>footer</title>
	<style>
		tspan { white-space:pre }
		.shp0 { fill: #025af5 } 
	</style>
	<g id="footer">
		<g id="call">
			<path id="icon" class="shp0" d="M5.02 20C6.13 20 7.02 19.1 7.02 18L7.02 12C7.02 10.9 6.13 10 5.02 10L5.02 9C5.02 5.13 8.16 2 12.03 2C15.9 2 19.03 5.13 19.03 9L19.03 10C17.93 10 17.03 10.9 17.03 12L17.03 18L14.03 18C13.48 18 13.03 18.45 13.03 19C13.03 19.55 13.48 20 14.03 20L19.03 20C21.8 19.99 24.03 17.75 24.02 14.98C24.02 13.01 22.85 11.22 21.04 10.42L21.04 9C21.04 4.03 17 0 12.03 0C7.05 0 3.02 4.03 3.02 9L3.02 10.42C0.49 11.54 -0.66 14.49 0.46 17.02C1.26 18.82 3.04 19.99 5.02 20Z" />
		</g>
	</g>
</svg>