<svg version="1.2" baseProfile="tiny-ps" xmlns="http://www.w3.org/2000/svg" viewBox="0 0 26 26" width="26" height="26">
	<title>footer</title>
	<style>
		tspan { white-space:pre }
		.shp0 { opacity: 0.2;fill: #929292 } 
	</style>
	<g id="footer">
		<g id="social">
			<path id="instagram" class="shp0" d="M13 8.67C15.39 8.67 17.33 10.61 17.33 13C17.33 15.39 15.39 17.33 13 17.33C10.61 17.33 8.67 15.39 8.67 13C8.67 10.61 10.61 8.67 13 8.67ZM18.42 0L7.58 0C3.4 0 0 3.4 0 7.58L0 18.42C0 22.6 3.4 26 7.58 26L18.42 26C22.6 26 26 22.6 26 18.42L26 7.58C26 3.4 22.6 0 18.42 0ZM13 19.5C9.42 19.5 6.5 16.58 6.5 13C6.5 9.42 9.42 6.5 13 6.5C16.58 6.5 19.5 9.42 19.5 13C19.5 16.58 16.58 19.5 13 19.5ZM20.58 6.5C19.99 6.5 19.5 6.01 19.5 5.42C19.5 4.82 19.99 4.33 20.58 4.33C21.18 4.33 21.67 4.82 21.67 5.42C21.67 6.01 21.18 6.5 20.58 6.5Z" />
		</g>
	</g>
</svg>