<svg version="1.2" baseProfile="tiny-ps" xmlns="http://www.w3.org/2000/svg" viewBox="0 0 26 26" width="26" height="26">
	<title>footer</title>
	<style>
		tspan { white-space:pre }
		.shp0 { fill: #1768f6 } 
	</style>
	<g id="footer">
		<g id="social">
			<path id="linkedin" class="shp0" d="M13.79 10.87L13.79 10.85C13.78 10.86 13.77 10.87 13.77 10.87L13.79 10.87ZM18.45 0L7.55 0C3.38 0 0 3.38 0 7.55L0 18.45C0 22.62 3.38 26 7.55 26L18.45 26C20.76 26 22.83 24.96 24.21 23.33L24.21 23.33C25.33 22.01 26 20.31 26 18.45L26 7.55C26 3.38 22.62 0 18.45 0ZM9.42 18.11L6.61 18.11L6.61 9.65L9.42 9.65L9.42 18.11L9.42 18.11ZM8.01 8.49L8 8.49C7.05 8.49 6.44 7.84 6.44 7.03C6.44 6.2 7.07 5.57 8.03 5.57C9 5.57 9.59 6.2 9.61 7.03C9.61 7.85 9 8.49 8.01 8.49ZM19.56 18.11L16.75 18.11L16.75 13.58C16.75 12.44 16.34 11.67 15.32 11.67C14.55 11.67 14.08 12.19 13.88 12.7C13.81 12.88 13.79 13.13 13.79 13.38L13.79 18.11L10.98 18.11C10.98 18.11 11.01 10.44 10.98 9.65L13.79 9.65L13.79 10.85C14.16 10.27 14.83 9.45 16.32 9.45C18.17 9.45 19.56 10.66 19.56 13.26L19.56 18.11L19.56 18.11Z" />
		</g>
	</g>
</svg>