<svg version="1.2" baseProfile="tiny-ps" xmlns="http://www.w3.org/2000/svg" viewBox="0 0 32 26" width="32" height="26">
	<title>footer</title>
	<style>
		tspan { white-space:pre }
		.shp0 { opacity: 0.2;fill: #929292 } 
	</style>
	<g id="footer">
		<g id="social">
			<path id="twitter" class="shp0" d="M10.06 26C22.14 26 28.74 16 28.74 7.32C28.74 7.04 28.74 6.75 28.72 6.47C30.01 5.54 31.12 4.39 32 3.07C30.8 3.61 29.53 3.95 28.23 4.11C29.6 3.29 30.63 2 31.12 0.48C29.83 1.24 28.42 1.78 26.95 2.07C25.71 0.75 23.97 0 22.16 0C18.55 0 15.59 2.97 15.59 6.57C15.59 7.07 15.64 7.57 15.76 8.06C10.48 7.79 5.56 5.3 2.23 1.2C0.49 4.18 1.39 8.05 4.26 9.96C3.22 9.93 2.19 9.65 1.28 9.14L1.28 9.22C1.28 12.34 3.5 15.04 6.55 15.66C5.58 15.92 4.57 15.96 3.58 15.77C4.44 18.44 6.91 20.28 9.72 20.33C7.39 22.16 4.52 23.15 1.56 23.15C1.04 23.14 0.52 23.11 0 23.05C3 24.98 6.5 26 10.06 25.99" />
		</g>
	</g>
</svg>