<svg version="1.2" baseProfile="tiny-ps" xmlns="http://www.w3.org/2000/svg" viewBox="0 0 26 26" width="26" height="26">
	<title>footer</title>
	<style>
		tspan { white-space:pre }
		.shp0 { opacity: 0.2;fill: #929292 } 
	</style>
	<g id="footer">
		<g id="social">
			<path id="whatsapp" class="shp0" d="M13 0C5.88 0 0 5.88 0 13C0 15.71 0.79 18.2 2.26 20.35L0.79 24.76C0.68 24.98 0.79 25.21 0.9 25.32C1.13 25.43 1.36 25.55 1.58 25.43L6.1 23.97C8.14 25.32 10.63 26 13 26C20.12 26 26 20.12 26 13C26 5.88 20.12 0 13 0ZM20.8 18.31C20.46 19.33 19.1 20.23 17.97 20.46C17.75 20.46 17.52 20.57 17.18 20.57C16.28 20.57 15.15 20.23 13.34 19.56C11.08 18.65 8.82 16.62 7.01 14.02L6.9 13.9C6.22 13 5.2 11.42 5.2 9.72C5.2 7.8 6.22 6.78 6.56 6.33C7.01 5.88 7.57 5.65 8.25 5.65C8.37 5.65 8.48 5.65 8.59 5.65L8.7 5.65C9.27 5.65 9.61 5.88 9.95 6.56L10.17 7.01C10.51 7.8 10.97 9.04 11.08 9.27C11.3 9.72 11.3 10.06 11.08 10.4C10.97 10.63 10.85 10.85 10.63 11.08C10.51 11.19 10.4 11.3 10.4 11.42C10.29 11.53 10.17 11.64 10.06 11.76C10.06 11.87 10.06 11.87 10.06 11.87C10.4 12.43 11.08 13.45 11.98 14.24C13.23 15.37 14.13 15.71 14.58 15.94L14.7 15.94C14.81 15.94 14.92 16.05 14.92 15.94C15.15 15.71 15.37 15.26 15.71 14.92L15.83 14.81C16.17 14.36 16.62 14.24 16.84 14.24C16.96 14.24 17.18 14.24 17.3 14.36C17.41 14.36 17.63 14.47 19.78 15.6L20.01 15.71C20.35 15.83 20.57 15.94 20.69 16.28C21.14 16.5 21.03 17.52 20.8 18.31Z" />
		</g>
	</g>
</svg>